HIERARCHY
ROOT Haolin_28_06:Solving:Hips
{
	OFFSET 0.000000 0.000000 0.000000
	CHANNELS 6 Xposition Yposition Zposition Xrotation Yrotation Zrotation
	JOINT Haolin_28_06:Solving:Spine
	{
		OFFSET 0.000000 -12.181966 2.015561
		CHANNELS 6 Xposition Yposition Zposition Xrotation Yrotation Zrotation
		JOINT Haolin_28_06:Solving:Spine1
		{
			OFFSET 0.000000 -8.890296 1.567602
			CHANNELS 6 Xposition Yposition Zposition Xrotation Yrotation Zrotation
			JOINT Haolin_28_06:Solving:Spine2
			{
				OFFSET 0.000000 -8.993092 0.786796
				CHANNELS 6 Xposition Yposition Zposition Xrotation Yrotation Zrotation
				JOINT Haolin_28_06:Solving:Spine3
				{
					OFFSET 0.000000 -9.027443 0.000000
					CHANNELS 6 Xposition Yposition Zposition Xrotation Yrotation Zrotation
					JOINT Haolin_28_06:Solving:Neck
					{
						OFFSET 0.000000 -11.606712 -1.160669
						CHANNELS 6 Xposition Yposition Zposition Xrotation Yrotation Zrotation
						JOINT Haolin_28_06:Solving:Neck1
						{
							OFFSET 0.000000 -7.471592 -0.653680
							CHANNELS 6 Xposition Yposition Zposition Xrotation Yrotation Zrotation
							JOINT Haolin_28_06:Solving:Head
							{
								OFFSET 0.000000 -7.386181 -1.302382
								CHANNELS 6 Xposition Yposition Zposition Xrotation Yrotation Zrotation
								JOINT Haolin_28_06:Solving:HeadEnd
								{
									OFFSET 0.000000 -9.728081 0.000002
									CHANNELS 6 Xposition Yposition Zposition Xrotation Yrotation Zrotation
									End Site
									{
										OFFSET 0.000000 -9.728081 0.000002
									}
								}
							}
						}
					}
					JOINT Haolin_28_06:Solving:RightShoulder
					{
						OFFSET 0.000000 -8.290508 -5.270916
						CHANNELS 6 Xposition Yposition Zposition Xrotation Yrotation Zrotation
						JOINT Haolin_28_06:Solving:RightArm
						{
							OFFSET -19.261074 -0.000008 0.000000
							CHANNELS 6 Xposition Yposition Zposition Xrotation Yrotation Zrotation
							JOINT Haolin_28_06:Solving:RightForeArm
							{
								OFFSET -30.691700 -0.000011 0.000000
								CHANNELS 6 Xposition Yposition Zposition Xrotation Yrotation Zrotation
								JOINT Haolin_28_06:Solving:RightHand
								{
									OFFSET -20.216934 -0.000008 0.000000
									CHANNELS 6 Xposition Yposition Zposition Xrotation Yrotation Zrotation
									JOINT Haolin_28_06:Solving:RightHandThumb1
									{
										OFFSET -4.948814 2.881329 -3.679893
										CHANNELS 6 Xposition Yposition Zposition Xrotation Yrotation Zrotation
										End Site
										{
											OFFSET -7.039886 -0.000004 -7.104978
										}
									}
									JOINT Haolin_28_06:Solving:RightHandMiddle1
									{
										OFFSET -13.196846 -0.000004 0.084595
										CHANNELS 6 Xposition Yposition Zposition Xrotation Yrotation Zrotation
										End Site
										{
											OFFSET -10.002037 -0.000004 0.000000
										}
									}
								}
							}
						}
					}
					JOINT Haolin_28_06:Solving:LeftShoulder
					{
						OFFSET 0.000000 -8.290508 -5.270916
						CHANNELS 6 Xposition Yposition Zposition Xrotation Yrotation Zrotation
						JOINT Haolin_28_06:Solving:LeftArm
						{
							OFFSET 19.261074 -0.000008 0.000000
							CHANNELS 6 Xposition Yposition Zposition Xrotation Yrotation Zrotation
							JOINT Haolin_28_06:Solving:LeftForeArm
							{
								OFFSET 30.691700 -0.000011 0.000000
								CHANNELS 6 Xposition Yposition Zposition Xrotation Yrotation Zrotation
								JOINT Haolin_28_06:Solving:LeftHand
								{
									OFFSET 20.216934 -0.000008 0.000000
									CHANNELS 6 Xposition Yposition Zposition Xrotation Yrotation Zrotation
									JOINT Haolin_28_06:Solving:LeftHandThumb1
									{
										OFFSET 4.948814 2.881329 -3.679893
										CHANNELS 6 Xposition Yposition Zposition Xrotation Yrotation Zrotation
										End Site
										{
											OFFSET 7.039886 -0.000004 -7.104978
										}
									}
									JOINT Haolin_28_06:Solving:LeftHandMiddle1
									{
										OFFSET 13.196846 -0.000004 0.084595
										CHANNELS 6 Xposition Yposition Zposition Xrotation Yrotation Zrotation
										End Site
										{
											OFFSET 10.002037 -0.000004 0.000000
										}
									}
								}
							}
						}
					}
				}
			}
		}
	}
	JOINT Haolin_28_06:Solving:RightUpLeg
	{
		OFFSET -10.083070 0.000000 0.000000
		CHANNELS 6 Xposition Yposition Zposition Xrotation Yrotation Zrotation
		JOINT Haolin_28_06:Solving:RightLeg
		{
			OFFSET 0.000000 47.042522 -0.000008
			CHANNELS 6 Xposition Yposition Zposition Xrotation Yrotation Zrotation
			JOINT Haolin_28_06:Solving:RightFoot
			{
				OFFSET 0.000000 38.766415 -0.000006
				CHANNELS 6 Xposition Yposition Zposition Xrotation Yrotation Zrotation
				JOINT Haolin_28_06:Solving:RightForeFoot
				{
					OFFSET 0.000000 3.531212 -0.000000
					CHANNELS 6 Xposition Yposition Zposition Xrotation Yrotation Zrotation
					JOINT Haolin_28_06:Solving:RightToeBase
					{
						OFFSET 0.000000 0.000000 -13.829352
						CHANNELS 6 Xposition Yposition Zposition Xrotation Yrotation Zrotation
						JOINT Haolin_28_06:Solving:RightToeBaseEnd
						{
							OFFSET 0.000000 0.000000 -4.034167
							CHANNELS 6 Xposition Yposition Zposition Xrotation Yrotation Zrotation
							End Site
							{
								OFFSET 0.000000 -4.034164 0.000004
							}
						}
					}
				}
			}
		}
	}
	JOINT Haolin_28_06:Solving:LeftUpLeg
	{
		OFFSET 10.083070 0.000000 0.000000
		CHANNELS 6 Xposition Yposition Zposition Xrotation Yrotation Zrotation
		JOINT Haolin_28_06:Solving:LeftLeg
		{
			OFFSET 0.000000 47.042522 -0.000008
			CHANNELS 6 Xposition Yposition Zposition Xrotation Yrotation Zrotation
			JOINT Haolin_28_06:Solving:LeftFoot
			{
				OFFSET 0.000000 38.766415 -0.000006
				CHANNELS 6 Xposition Yposition Zposition Xrotation Yrotation Zrotation
				JOINT Haolin_28_06:Solving:LeftForeFoot
				{
					OFFSET 0.000000 3.531212 -0.000000
					CHANNELS 6 Xposition Yposition Zposition Xrotation Yrotation Zrotation
					JOINT Haolin_28_06:Solving:LeftToeBase
					{
						OFFSET 0.000000 0.000000 -13.829352
						CHANNELS 6 Xposition Yposition Zposition Xrotation Yrotation Zrotation
						JOINT Haolin_28_06:Solving:LeftToeBaseEnd
						{
							OFFSET 0.000000 0.000000 -4.855067
							CHANNELS 6 Xposition Yposition Zposition Xrotation Yrotation Zrotation
							End Site
							{
								OFFSET 0.000000 -4.855064 0.000004
							}
						}
					}
				}
			}
		}
	}
}
MOTION
Frames: 6
Frame Time: 0.041667
-12.070934 -132.756699 -94.012497 77.179382 11.938199 4.427867 -0.000004 -12.181971 2.015529 18.281527 -0.860060 -5.737269 0.000007 -8.890306 1.567621 0.776877 0.045876 -0.785532 -0.000006 -8.993085 0.786826 0.429731 -1.878234 -0.006058 -0.000008 -9.027417 -0.000006 3.268746 -0.947830 1.975562 -0.000011 -11.606736 -1.160612 -2.629653 -0.027707 -0.619248 -0.000005 -7.471595 -0.653670 2.076881 -1.283338 -1.606694 0.000004 -7.386172 -1.302366 8.613669 0.042145 -1.957013 0.000001 -9.728081 0.000005 0.000003 0.000001 0.000000 -0.000007 -8.290524 -5.270886 -0.000009 21.445148 8.666658 -19.261059 -0.000019 -0.000023 -14.587850 -51.623181 -95.436184 -30.691727 -0.000029 -0.000002 -22.363834 -13.148480 -5.346767 -20.216946 -0.000015 0.000010 -0.275704 -9.158788 -1.731635 -4.948752 2.881324 -3.679863 -0.000004 0.000003 0.000002 -13.196815 -0.000012 0.084584 0.000000 -0.000003 0.000001 -0.000007 -8.290527 -5.270886 -0.000008 -16.561546 -5.308091 19.261078 -0.000002 0.000000 -5.623457 15.801899 85.932461 30.691704 -0.000007 0.000018 -12.587766 12.468244 2.760124 20.216917 -0.000004 -0.000011 -0.105772 -2.069026 -2.927107 4.948837 2.881323 -3.679886 0.000000 0.000000 -0.000001 13.196893 -0.000003 0.084584 -0.000001 0.000000 0.000001 -10.083077 -0.000009 0.000010 19.049382 7.218910 -7.368901 0.000009 47.042519 -0.000046 2.599204 0.000002 -0.000001 0.000005 38.766422 -0.000012 1.806458 5.336253 1.380248 -0.000002 3.531219 0.000005 0.000000 0.000001 0.000001 0.000010 0.000016 -13.829379 -2.526437 0.000006 0.000000 0.000011 0.000007 -4.034170 -0.000001 0.000003 -0.000000 10.083071 -0.000013 -0.000028 4.431551 -9.737493 -13.018300 0.000001 47.042538 0.000011 28.369828 -0.000000 -0.000001 -0.000003 38.766426 -0.000000 1.190182 -17.644025 7.243793 0.000006 3.531212 0.000007 0.000000 0.000007 0.000002 -0.000006 0.000009 -13.829390 -2.531308 0.000005 0.000002 -0.000004 0.000001 -4.855069 0.000003 0.000001 0.000001 
-12.129562 -132.677322 -94.014503 77.054663 11.996544 4.346197 -0.000001 -12.181960 2.015587 18.343107 -0.875950 -5.626779 -0.000005 -8.890281 1.567636 0.824755 0.046622 -0.792998 -0.000003 -8.993095 0.786832 0.498622 -1.930824 -0.018916 -0.000002 -9.027435 -0.000027 3.301416 -0.954148 1.953069 -0.000003 -11.606711 -1.160698 -2.587909 -0.023538 -0.641344 0.000001 -7.471589 -0.653669 2.128838 -1.228192 -1.589414 0.000003 -7.386191 -1.302369 8.616317 0.044251 -1.933829 -0.000004 -9.728088 -0.000003 0.000003 0.000001 -0.000001 0.000000 -8.290501 -5.270974 -0.000012 21.458475 8.730219 -19.261065 -0.000020 -0.000017 -14.786236 -52.669033 -95.847758 -30.691698 -0.000019 -0.000021 -23.767315 -14.174933 -6.154957 -20.216936 -0.000015 -0.000001 -0.069541 -8.196300 -0.487809 -4.948819 2.881330 -3.679865 -0.000000 0.000007 0.000005 -13.196868 -0.000005 0.084597 -0.000001 -0.000000 0.000001 0.000001 -8.290501 -5.270974 -0.000009 -16.543111 -5.236297 19.261080 -0.000029 -0.000011 -5.655199 17.481548 86.795927 30.691755 -0.000026 0.000000 -12.471855 12.611746 2.764842 20.216940 -0.000010 -0.000013 -0.107102 -2.082755 -2.944347 4.948759 2.881326 -3.679896 0.000001 0.000000 -0.000002 13.196815 -0.000002 0.084584 0.000000 -0.000001 -0.000001 -10.083071 -0.000003 0.000041 19.084074 7.466913 -7.257792 0.000014 47.042538 -0.000025 2.941175 0.000001 -0.000001 0.000015 38.766426 -0.000040 1.575402 5.113007 1.445985 0.000002 3.531219 0.000010 0.000001 -0.000001 0.000001 -0.000012 0.000006 -13.829337 -2.555142 0.000000 0.000000 -0.000003 -0.000001 -4.034175 -0.000002 0.000003 -0.000000 10.083076 0.000017 -0.000006 4.122825 -9.405944 -12.823798 -0.000002 47.042522 -0.000007 29.364056 -0.000000 -0.000003 -0.000001 38.766434 -0.000010 1.287681 -17.982027 6.718611 0.000006 3.531212 0.000041 -0.000003 0.000003 0.000001 -0.000001 0.000007 -13.829350 -2.417763 0.000003 -0.000002 0.000001 -0.000001 -4.855080 -0.000001 0.000004 -0.000001 
-12.174809 -132.604431 -94.016594 76.947948 12.042536 4.261253 -0.000003 -12.181981 2.015596 18.403550 -0.889953 -5.532065 0.000007 -8.890289 1.567602 0.871535 0.047305 -0.808376 0.000001 -8.993103 0.786794 0.560964 -1.974453 -0.028863 -0.000002 -9.027419 -0.000012 3.324407 -0.965334 1.945260 0.000003 -11.606695 -1.160644 -2.533658 -0.011871 -0.648269 0.000005 -7.471599 -0.653696 2.181497 -1.187029 -1.589730 -0.000004 -7.386187 -1.302389 8.639038 0.046180 -1.927166 0.000002 -9.728065 0.000050 0.000001 0.000001 0.000001 -0.000002 -8.290524 -5.270893 -0.000010 21.529801 8.870268 -19.261070 -0.000037 -0.000013 -14.990505 -53.464747 -96.131928 -30.691696 -0.000018 -0.000012 -26.076978 -14.611306 -7.037850 -20.216923 -0.000015 -0.000008 0.230239 -7.752303 1.706354 -4.948855 2.881335 -3.679880 -0.000004 -0.000010 0.000006 -13.196853 0.000005 0.084597 -0.000002 -0.000002 0.000001 -0.000000 -8.290543 -5.270889 -0.000009 -16.504667 -5.163892 19.261080 -0.000023 0.000022 -5.755771 19.087911 87.621731 30.691711 -0.000010 -0.000013 -12.121853 12.771364 2.718338 20.216917 -0.000011 0.000029 -0.106831 -2.055853 -2.975306 4.948841 2.881328 -3.679879 0.000001 0.000000 -0.000005 13.196869 0.000000 0.084614 0.000000 0.000002 -0.000000 -10.083064 -0.000010 -0.000005 19.096338 7.615170 -7.145721 0.000019 47.042534 0.000006 3.254169 0.000001 0.000001 0.000013 38.766415 -0.000071 1.367985 4.998663 1.506382 0.000009 3.531219 -0.000002 0.000001 -0.000002 0.000000 -0.000003 0.000006 -13.829362 -2.608204 0.000002 0.000000 0.000016 -0.000000 -4.034178 -0.000001 0.000000 0.000001 10.083067 -0.000015 0.000033 3.767969 -9.111400 -12.611255 -0.000001 47.042519 -0.000022 30.335688 -0.000000 -0.000005 -0.000002 38.766411 -0.000023 1.424418 -18.347451 6.154534 0.000001 3.531204 0.000013 -0.000003 -0.000000 -0.000001 0.000010 -0.000004 -13.829350 -2.367537 0.000002 -0.000001 0.000002 0.000008 -4.855058 0.000001 -0.000002 0.000000 
-12.203923 -132.531464 -94.020302 76.838891 12.044027 4.157808 -0.000002 -12.181960 2.015559 18.463758 -0.900887 -5.434689 -0.000009 -8.890300 1.567618 0.917913 0.049219 -0.825572 -0.000004 -8.993101 0.786809 0.626104 -1.968906 -0.045358 -0.000009 -9.027416 -0.000021 3.340767 -0.970505 1.941208 -0.000001 -11.606703 -1.160647 -2.504676 0.024886 -0.658983 -0.000003 -7.471597 -0.653667 2.280678 -1.182203 -1.583349 0.000004 -7.386202 -1.302381 8.689827 0.043581 -1.914631 -0.000001 -9.728088 0.000012 -0.000000 0.000001 -0.000002 -0.000003 -8.290478 -5.270914 -0.000013 21.603304 8.993684 -19.261061 -0.000014 -0.000044 -15.071349 -53.896603 -96.149789 -30.691711 -0.000020 0.000007 -27.337161 -14.941034 -7.591923 -20.216942 -0.000015 0.000004 0.506564 -7.659698 3.794999 -4.948808 2.881327 -3.679893 -0.000004 0.000007 -0.000001 -13.196869 -0.000005 0.084569 -0.000001 0.000001 -0.000000 -0.000002 -8.290508 -5.270908 -0.000012 -16.452541 -5.090198 19.261070 -0.000011 0.000000 -5.902787 20.556918 88.401083 30.691713 -0.000013 0.000012 -11.336932 12.985777 2.579540 20.216946 -0.000017 0.000017 -0.104131 -2.107254 -2.829587 4.948815 2.881334 -3.679862 -0.000003 0.000002 -0.000009 13.196877 0.000003 0.084629 0.000002 -0.000001 0.000001 -10.083071 0.000011 -0.000023 19.097036 7.916130 -7.015490 -0.000011 47.042534 0.000021 3.636014 -0.000006 -0.000001 -0.000007 38.766407 -0.000023 1.122228 4.783093 1.574244 0.000019 3.531219 -0.000011 0.000000 -0.000001 0.000001 -0.000014 0.000014 -13.829348 -2.653232 0.000001 0.000000 0.000003 -0.000008 -4.034187 -0.000002 0.000004 -0.000000 10.083065 0.000020 0.000000 3.397455 -8.774977 -12.366717 0.000000 47.042530 -0.000022 31.293318 0.000001 -0.000003 -0.000002 38.766411 0.000001 1.598433 -18.769512 5.683711 0.000016 3.531219 0.000011 -0.000003 0.000001 -0.000001 0.000009 -0.000008 -13.829360 -2.313677 -0.000005 -0.000002 -0.000005 -0.000008 -4.855077 0.000000 0.000000 0.000000 
-12.230703 -132.454651 -94.020454 76.733227 12.004006 4.072140 -0.000007 -12.181987 2.015600 18.552472 -0.919225 -5.372439 0.000000 -8.890320 1.567627 0.951203 0.052518 -0.842397 0.000001 -8.993114 0.786765 0.659145 -1.942365 -0.060506 -0.000003 -9.027418 -0.000058 3.355416 -0.971740 1.942567 -0.000005 -11.606678 -1.160663 -2.413308 0.064751 -0.673007 0.000005 -7.471597 -0.653698 2.313970 -1.185106 -1.587165 -0.000000 -7.386158 -1.302380 8.750631 0.040629 -1.912205 -0.000010 -9.728058 0.000024 -0.000001 0.000000 -0.000000 -0.000001 -8.290447 -5.270922 -0.000015 21.693669 9.065176 -19.261074 -0.000014 -0.000008 -14.926296 -53.917756 -95.859376 -30.691708 -0.000018 0.000019 -26.830465 -15.409554 -7.654707 -20.216942 -0.000005 -0.000021 0.701504 -7.855265 5.119388 -4.948805 2.881330 -3.679909 0.000002 -0.000000 0.000002 -13.196860 -0.000004 0.084584 -0.000000 -0.000003 0.000001 -0.000002 -8.290451 -5.270923 -0.000011 -16.390463 -5.034273 19.261080 -0.000006 0.000013 -6.058659 22.002474 89.132193 30.691704 -0.000008 -0.000004 -10.223925 13.294029 2.374888 20.216908 -0.000012 0.000005 -0.101781 -2.201687 -2.647415 4.948818 2.881321 -3.679889 -0.000000 0.000002 -0.000004 13.196837 -0.000003 0.084608 -0.000001 0.000002 -0.000001 -10.083071 -0.000010 0.000007 19.115393 8.105165 -6.915817 -0.000001 47.042519 0.000012 3.960441 0.000004 -0.000001 -0.000001 38.766411 -0.000025 0.901553 4.685938 1.642963 0.000005 3.531219 -0.000008 0.000001 -0.000005 0.000001 0.000012 -0.000003 -13.829393 -2.673932 0.000004 0.000000 0.000016 -0.000015 -4.034183 -0.000001 0.000002 -0.000000 10.083067 -0.000021 0.000037 3.023157 -8.499615 -12.140526 -0.000004 47.042511 -0.000005 32.224556 -0.000001 -0.000006 -0.000000 38.766411 -0.000027 1.509107 -19.148044 5.277754 -0.000001 3.531219 0.000002 -0.000003 0.000001 -0.000002 0.000003 0.000003 -13.829357 -1.832830 -0.000001 0.000001 0.000006 -0.000006 -4.855042 0.000006 0.000001 -0.000001 
-12.238256 -132.371033 -94.021149 76.620256 11.963240 3.954525 0.000003 -12.181947 2.015592 18.629636 -0.923266 -5.299197 0.000001 -8.890286 1.567604 0.987479 0.054993 -0.848593 0.000005 -8.993092 0.786787 0.704928 -1.902668 -0.070719 0.000000 -9.027452 -0.000044 3.376060 -0.966441 1.937220 -0.000003 -11.606710 -1.160668 -2.342853 0.094465 -0.680977 -0.000005 -7.471583 -0.653677 2.401506 -1.189960 -1.578981 -0.000000 -7.386219 -1.302392 8.800368 0.037872 -1.896749 0.000002 -9.728073 -0.000028 -0.000003 0.000000 0.000000 0.000003 -8.290512 -5.270935 -0.000010 21.741406 9.091470 -19.261055 0.000011 -0.000009 -14.706575 -53.886019 -95.362732 -30.691685 -0.000001 0.000018 -25.600726 -15.820292 -7.441967 -20.216946 -0.000014 0.000002 0.815182 -8.234770 5.673202 -4.948780 2.881318 -3.679861 0.000001 0.000005 -0.000003 -13.196839 -0.000003 0.084621 0.000001 0.000004 -0.000001 0.000002 -8.290512 -5.270935 -0.000005 -16.323438 -4.977580 19.261082 -0.000045 -0.000018 -6.250549 23.419426 89.813402 30.691669 -0.000016 0.000002 -8.871524 13.645136 2.108795 20.216902 -0.000016 0.000010 -0.093241 -2.253382 -2.370110 4.948839 2.881321 -3.679866 0.000002 -0.000012 0.000001 13.196862 -0.000010 0.084584 0.000000 -0.000000 0.000001 -10.083076 0.000005 0.000043 19.121632 8.121799 -6.777256 0.000001 47.042519 -0.000014 4.273535 0.000003 -0.000000 -0.000001 38.766441 0.000007 0.669645 4.797108 1.668163 0.000006 3.531227 0.000006 0.000001 -0.000005 0.000001 0.000001 -0.000005 -13.829378 -2.689699 0.000003 0.000000 -0.000005 -0.000001 -4.034148 -0.000002 0.000002 0.000000 10.083078 0.000031 0.000019 2.624610 -8.365799 -11.852911 -0.000001 47.042545 0.000015 33.126967 -0.000001 -0.000004 0.000000 38.766418 -0.000019 1.398291 -19.712544 4.954534 -0.000000 3.531204 0.000014 0.000003 0.000002 -0.000002 0.000006 0.000003 -13.829335 -1.496620 0.000004 -0.000001 0.000007 -0.000001 -4.855095 -0.000003 0.000005 -0.000001 
